<svg xmlns="http://www.w3.org/2000/svg" xmlns:svg="http://www.w3.org/2000/svg" id="svg2" width="1686.667" height="345.333" version="1.1" viewBox="0 0 1686.667 345.333" xml:space="preserve"><metadata id="metadata8"/><defs id="defs6"><clipPath id="clipPath18" clipPathUnits="userSpaceOnUse"><path id="path16" d="M 0,259 H 1265 V 0 H 0 Z"/></clipPath></defs><g id="g10" transform="matrix(1.3333333,0,0,-1.3333333,0,345.33333)"><g id="g12"><g id="g14" clip-path="url(#clipPath18)"><g id="g20" transform="translate(1119.9053,139.3096)"><path id="path22" d="m 0,0 c -0.619,1.062 -2.418,2.922 -2.936,3.631 -1.942,2.661 -5.392,8.167 -8.436,12.248 -1.941,2.601 -4.713,4.98 -4.658,6.087 0.063,1.258 4.429,4.171 4.447,7.975 0.017,3.759 -2.702,7.652 -4.499,11.305 -1.448,2.944 -2.598,6.955 -2.657,8.531 -0.05,1.337 -0.015,3.585 2.436,3.12 3.708,-0.703 5.436,4.317 6.469,8.896 0.519,2.297 0.21,8.654 -3.329,10.9 -2.719,1.725 -7.605,2.649 -12.237,-1.771 -2.836,-2.705 -2.905,-8.274 -3.862,-12.837 -0.808,-3.852 -4.53,-13.544 -7.059,-21.974 -1.318,-4.39 -5.989,-15.965 -6.666,-17.678 -1.849,-4.676 -2.984,-14.693 -5.038,-21.351 -0.141,-0.458 -1.749,-2.244 -2.029,-2.466 -1.715,-1.362 -3.019,-5.557 0.145,-6.395 6.248,-1.655 5.653,5.925 5.811,6.395 1.551,4.618 4.103,9.678 5.703,15.176 0.227,0.776 1.241,4.588 1.649,5.285 0.199,0.34 2.042,4.202 2.773,5.215 0,0 0.735,-8.022 -1.667,-13.434 -0.313,-0.708 -2.341,-5.878 -2.657,-8.902 -0.865,-8.309 1.519,-13.662 4.66,-21.125 2.287,-5.435 5.329,-14.517 6.357,-17.381 0,0 -0.953,-0.584 -4.463,-2.73 -7.351,-4.494 -15.766,-18.622 -22.363,-23.492 -0.823,-0.608 -2.656,-1.084 -3.616,-2.389 -1.959,-2.663 1.551,-5.044 2.065,-5.839 0.904,-1.399 5.808,-8.601 6.697,-9.523 2.713,-2.817 3.522,2.174 2.257,4.428 -2.094,3.729 -2.334,8.555 -0.87,9.956 1.555,1.489 7.042,4.708 10.053,7.18 0.933,0.766 6.589,4.402 6.589,4.402 0,0 -1.332,-5.966 -0.455,-13.547 0.488,-4.22 0.669,-9.942 0.69,-10.885 0.037,-1.808 -0.443,-3.987 -1.373,-6.109 -1.242,-2.831 0.382,-5.033 2.15,-5.033 h 18.668 c 1.147,1.308 0.101,2.393 -5.372,3.857 -2.087,0.557 -5.763,2.071 -6.323,6.158 -0.436,3.18 0.431,10.953 1.431,15.339 0.677,2.966 3.68,18.913 3.68,18.913 0,0 4.119,2.063 5.338,3.998 1.171,1.859 1.594,4.609 1.301,9.561 -0.231,3.877 -0.337,14.862 -3.288,27.161 -4.612,19.219 -4.255,21.598 -4.255,21.598 0,0 2.224,-2.751 3.577,-3.825 3.495,-2.776 7.913,-6.709 9.27,-8.517 0.744,-0.989 0.477,-2.138 0.454,-2.904 -0.071,-2.27 1.716,-4.908 3.569,-4.041 C 1.272,-5.366 0.932,-1.596 0,0" style="fill:#037ef2;fill-opacity:1;fill-rule:nonzero;stroke:none"/></g><g id="g24" transform="translate(1221.874,57.3955)"><path id="path26" d="m 0,0 c -1.473,-0.096 -10.995,-0.679 -12.267,0.716 -5.065,5.555 -10.287,25.421 -13.201,31.559 -1.619,3.413 -9.764,31.387 -15.522,43.527 l 0.096,7.621 c 0,0 2.416,-0.975 2.959,-1.322 2.023,-1.292 8.879,-5.454 11.752,-8.773 0.924,-1.067 2.37,-3.494 2.665,-3.982 1.263,-2.083 4.81,-2.011 7.247,-0.469 1.182,0.749 2.113,4.557 -1.004,6.695 -0.919,0.63 -4.067,1.804 -5.851,3.285 -1.215,1.009 -11.508,10.267 -12.813,11.686 -0.854,0.927 -4.614,4.46 -4.614,4.46 -0.201,2.531 -1.441,17.589 -3.067,24.09 -0.852,3.401 -1.697,5.593 -1.662,7.266 0.026,1.284 -0.286,7.273 2.608,6.745 4.682,-0.854 7.325,8.704 6.735,14.387 -0.505,4.856 -3.458,9.113 -10.224,9.113 -2.594,0 -7.507,-2.567 -8.462,-6.889 -1.203,-5.446 -0.033,-7.461 0,-10.233 0.01,-0.776 0.093,-2.334 0,-3.105 -0.109,-0.912 -0.769,-5.481 -1.846,-6.73 -1.488,-1.724 -5.367,-3.989 -8.861,-9.75 -2.726,-4.493 -5.19,-15.044 -7.033,-21.223 -2.872,-9.63 -4.372,-24.438 -6.593,-28.112 -1.585,-2.623 -2.395,-5.413 -2.16,-8.126 0.473,-5.475 6.514,-4.027 7.723,-1.668 1.272,2.479 1.141,6.016 1.302,7.751 0.424,4.586 7.978,25.228 7.978,25.228 0,0 -0.494,-13.73 -0.681,-16.002 0,0 -1.482,-4.832 -2.607,-11.627 -0.51,-3.077 -0.559,-5.808 -0.993,-10.82 -0.611,-7.031 -1.86,-15.738 -3.262,-22.052 -6.069,-6.377 -9.424,-18.045 -15.353,-25.77 -1.021,-1.331 -6.258,-4.999 -2.629,-9.336 1.952,-2.331 5.891,-5.607 6.965,-6.558 0.559,-0.496 3.652,-3.503 5.841,-3.799 1.504,-0.203 4.275,-0.177 4.534,1.429 0.138,0.856 -3.004,2.327 -3.351,2.759 -1.748,2.174 -2.983,5.726 -3.162,7.689 -0.083,0.925 0.308,1.626 0.619,2.257 1.116,2.27 13.382,19.16 16.896,25.297 3.653,6.381 7.988,21.199 10.545,27.492 2.03,-6.262 12.484,-24.488 17.242,-33.373 2.138,-6.688 5.629,-12.713 11.891,-24.09 1.102,-2.004 1.335,-6.647 2.967,-7.471 1.049,-0.529 2.527,-0.25 5.304,1.138 8.026,4.011 18.108,4.578 18.107,6.514 C 4.758,-0.867 1.397,0.09 0,0" style="fill:#037ef2;fill-opacity:1;fill-rule:nonzero;stroke:none"/></g><g id="g28" transform="translate(958.75,110.5449)"><path id="path30" d="M 0,0 C 0.027,0.058 0.043,0.091 0.043,0.091 0.007,0.097 -0.006,0.064 0,0" style="fill:#037ef2;fill-opacity:1;fill-rule:nonzero;stroke:none"/></g><g id="g32" transform="translate(942.8584,123.4473)"><path id="path34" d="m 0,0 c -2.272,-6.534 -5.198,-28.229 -5.198,-28.229 1.672,10.818 -0.568,25.71 -0.453,28.938 0.224,6.366 1.999,26.925 3.611,29.782 0.098,0.173 7.432,-12.488 7.488,-13.21 C 5.64,13.067 2.58,7.417 0,0 m -21.096,-49.918 -3.268,8.374 c 0.21,0.999 4.02,4.16 4.211,4.103 z m -6.658,33.505 c -1.133,-3.902 -2.743,-8.478 -3.713,-8.467 0,0 -2.732,5.58 -5.549,13.292 -1.534,4.201 -4.137,9.744 -4.061,13.47 0.125,6.153 -0.872,14.218 -0.166,14.656 0.526,0.327 4.347,-1.837 4.752,-2.494 0,0 0.901,-10.505 0.771,-11.068 0,0 -1.44,-1.763 -1.517,-3.846 -0.094,-2.509 1.59,-6.067 5.096,-5.983 4.094,0.099 4.759,3.977 4.823,3.748 0,0 0.822,-8.973 -0.436,-13.308 m -22.892,-33.113 c 0,0 -6.01,13.857 -6.087,16.69 -0.026,0.919 4.17,8.274 6.162,8.022 0.883,-0.113 8.872,-12.431 8.793,-14.11 -0.078,-1.657 -8.868,-10.602 -8.868,-10.602 m -27.806,-21.322 c -1.36,1.033 -2.469,5.925 -2.469,5.925 l 3.208,5.777 3.19,-11.13 c 0,0 -3.022,-1.26 -3.929,-0.572 m -6.286,18.062 c 0,0 -3.729,14.724 -3.677,15.223 l 1.784,2.231 5.543,-12.317 z m -14.595,-12.922 c -0.216,0.47 2.979,16.931 2.979,16.931 0,0 4.731,-11.976 4.944,-13.036 0,0 -1.175,-2.846 -1.727,-4.354 -0.687,-1.878 2.953,-5.879 2.953,-5.879 0,0 -6.773,1.183 -9.149,6.338 M 94.859,-78.269 c 0.106,0.256 0.748,0.743 0.28,1.549 -1.685,2.901 -14.529,3.827 -15.405,7.795 -0.168,0.761 1.937,14.52 2.311,17.121 0.531,3.695 2.471,18.953 3.687,25.306 2.894,15.118 0.954,31.927 1.472,32.188 l 4.878,-6.928 9.953,6.816 c 0.393,-0.016 3.831,-1.562 6.858,1.948 0.755,0.877 0.636,3.115 0.709,3.405 l 11.788,10.006 -16.972,23.251 c 0,0 -14.93,-13.771 -16.151,-13.51 -0.202,0.042 -0.283,5.267 -0.213,9.501 0.062,3.859 -0.045,10.008 -1.3,13.032 -1.077,2.598 -2.231,5.874 -1.85,7.097 0.07,0.22 0.789,0.531 0.732,1.549 -0.077,1.354 -0.437,2.315 -0.461,2.595 -0.228,2.57 0.036,3.311 2.335,2.944 4.881,-0.777 7.074,10.66 7.188,11.145 0.115,0.489 0.113,5.567 -1.998,7.799 -1.001,1.058 -3.192,4.473 -9.797,3.342 -4.529,-0.775 -7.845,-4.617 -8.078,-9.495 -0.189,-3.965 2.012,-6.066 1.816,-11.06 C 76.632,68.905 76.598,68.033 76.454,67.863 74.84,65.971 69.072,61.823 66.697,58.519 64.533,55.509 62.106,48.723 61.33,46.97 60.604,45.331 58.905,42.167 58.214,40.513 57.508,38.824 56,34.623 55.174,31.245 52.729,21.246 54.121,8.446 53.982,7.146 53.947,6.825 53.525,6.282 53.312,6.039 53.077,5.772 52.458,5.4 52.202,5.153 51.775,4.742 50.506,3.766 50.656,2.478 c 0.271,-2.327 1.78,-5.615 5.103,-4.678 1.699,0.478 2.678,2.608 2.89,2.894 0.181,0.243 1.191,1.907 1.341,2.228 0.241,0.516 0.395,1.665 0.451,2.231 0.05,0.496 -0.047,3.488 0,3.983 0.084,0.847 2.337,14.868 3.639,17.45 1.554,3.082 3.479,9.019 3.479,9.019 0,0 0.058,-9.333 -0.012,-10.22 -0.111,-1.404 -0.776,-4.156 -0.887,-5.559 -0.035,-0.445 0.071,-1.344 0,-1.784 -0.169,-1.04 -3.413,-6.437 -3.143,-12.373 0.22,-4.865 2.479,-7.7 2.03,-9.89 -0.379,-1.845 -4.123,-17.049 -4.443,-17.778 -0.192,-0.439 -0.817,-1.187 -1.114,-1.564 -1.312,-1.673 -3.86,-5.149 -5.181,-6.815 -2.351,-2.962 -9.205,-13.965 -9.205,-13.965 0,0 -3.282,11.468 -4.682,15.45 -0.834,2.372 -10.481,26.894 -11.181,29.147 -0.377,1.212 -4.082,17.49 -2.905,18.246 0.718,0.46 10.564,-5.979 12.476,-8.022 0.376,-0.403 2.778,-3.176 3.1,-3.76 0.196,-0.356 1,-1.743 3.116,-1.565 0.388,0.034 2.741,0.279 3.117,0.425 0.918,0.359 2.057,2.602 1.106,4.9 -0.096,0.231 -0.792,1.405 -1.55,1.997 -0.915,0.714 -10.402,6.456 -11.119,6.898 -1.548,0.953 -9.538,10.147 -9.565,10.459 -0.466,5.367 2.092,7.342 1.44,12.068 -0.704,5.107 -4.113,9.002 -5.199,10.612 -4.8,7.123 -3.722,14.236 -2.487,14.239 4.024,0.014 6.489,1.453 7.966,7.55 0.598,2.468 1.607,6.542 -0.377,10.48 -1.284,2.548 -6.396,4.618 -10.633,4.186 C 13.506,88.484 11.701,84.661 11.073,83.29 7.21,74.853 9.702,69.858 6.477,61.411 5.191,58.046 -0.362,50.066 1.889,46.026 L 1.613,44.692 c 0,0 -3.68,8.347 -6.358,17.168 -0.188,0.616 0.614,1.41 0.645,2.227 0.067,1.765 -0.35,2.521 -0.272,2.669 0.092,0.173 0.16,1.8 1.527,1.55 5.004,-0.914 6.537,3.81 7.209,6.673 1.174,5.006 0.852,10.274 -0.873,11.806 -3.892,3.453 -8.723,3.549 -10.251,3.116 -5.205,-1.474 -7.268,-5.517 -7.103,-9.351 0.292,-6.786 2.852,-8.998 0.882,-11.797 -0.647,-0.918 -12.491,-7.4 -14.728,-12.667 -6.359,-14.97 -7.99,-29.429 -8.074,-30.001 -0.105,-0.715 -4.607,2.606 -5.172,3.115 -0.803,0.724 -0.169,9.275 -1.628,17.77 -0.673,3.913 -3.816,12.406 -4.212,13.88 -0.31,1.16 -0.078,5.472 1.099,5.239 4.05,-0.805 7.701,7.768 7.796,11.566 0.114,4.631 -0.704,8.417 -2.458,9.788 -3.225,2.52 -7.637,2.944 -9.121,2.458 -4.361,-1.426 -6.973,-4.042 -7.332,-6.691 -0.654,-4.826 0.777,-7.989 0.888,-9.779 0.048,-0.775 0.139,-2.342 0,-3.105 -0.17,-0.938 -0.963,-6.44 -4.226,-10.018 -5.602,-6.141 -7.563,-15.788 -7.563,-15.788 0,0 -2.313,5.87 -5.523,11.604 -0.835,1.491 -1.483,2.95 -1.925,4.378 -0.865,2.791 -1.429,5.581 -0.383,5.488 6.431,-0.569 9.689,12.191 9.39,14.627 -0.535,4.351 -4.115,8.879 -8.984,8.845 -7.515,-0.05 -8.606,-6.993 -8.78,-9.095 -0.217,-2.627 -0.169,-8.558 -0.264,-10.041 -0.082,-1.292 -0.98,-4.446 -1.259,-5.709 -0.341,-1.54 -3.315,-3.542 -5.188,-10.324 0,0 -2.673,3.238 -2.89,4.021 -0.504,1.818 0.655,5.607 1.369,8.084 0,0 1.482,-0.237 2.278,-0.232 1.921,0.01 4.614,3.282 4.983,10.462 0.241,4.684 -1.086,7.81 -3.795,10.522 -1.29,1.292 -4.676,2.751 -10.633,2.751 H -904.49 v -168.17 h 805.174 24.305 17.199 c 2.47,0 0.84,3.021 -0.878,3.569 -2.828,0.9 -5.371,2.763 -6.155,3.489 -0.954,0.884 -5.019,21.257 -5.019,21.257 l 4.813,7.622 6.53,-15.08 c 0,0 -2.074,-1.966 -2.455,-4.039 -0.6,-3.263 4.647,-10.818 5.231,-11.892 1.247,-2.298 2.808,-4.926 4.482,-4.926 h 2.926 c 3.509,0 15.642,3.76 16.441,4.221 2.779,1.605 3.977,2.509 3.22,4.033 -0.57,1.147 -3.898,1.031 -4.174,1.096 -1.502,0.359 -7.739,0.162 -10.018,1.785 -1.486,1.059 -2.137,2.654 -3.145,5.637 0,0 10.006,12.387 12.105,12.055 1.574,-0.25 10.37,-19.576 10.471,-19.928 0.258,-0.914 -1.244,-4.977 -0.451,-7.984 0.171,-0.647 1.707,-0.915 1.877,-0.915 H 0.432 c 0.363,0.085 3.292,0.871 1.493,2.677 -0.534,0.535 -4.574,1.014 -5.039,1.204 -0.365,0.15 -2.954,0.63 -2.904,1.022 0,0 5.463,1.716 6.603,2.435 0.576,0.365 1.92,0.956 2.235,1.561 0.181,0.346 0.937,1.347 0.281,2.587 -0.515,0.973 -3.57,0.645 -4.067,0.6 -0.956,-0.084 -8.41,-0.797 -8.455,-0.3 -0.636,7.124 12.264,27.015 13.29,28.462 3.703,5.214 12.066,25.209 12.066,25.209 0,0 6.463,-12.595 13.587,-22.334 0.678,-0.925 8.223,-15.971 8.171,-17.292 -0.009,-0.253 -2.962,-4.167 -4.497,-4.777 -1.37,-0.544 -4.326,-1.903 -4.794,-3.046 -0.393,-0.96 -0.432,-2.254 0,-3.093 1.1,-2.136 6.729,-9.98 7.231,-10.722 0.2,-0.297 1.776,-2.789 3.184,-3.565 2.388,-1.313 5.871,-0.628 5.871,-0.628 0.099,0.053 0.348,1.49 -0.404,2.155 -0.717,0.635 -1.697,2.057 -2.53,3.334 -0.546,0.836 -1.771,4.419 -1.572,6.699 0.128,1.48 1.704,4.172 2.055,4.21 0,0 3.132,-5.912 3.878,-9.214 0.349,-1.54 0.429,-2.284 1.276,-3.582 0.941,-1.443 3.177,-1.166 4.152,-0.657 1.847,0.963 9.311,3.928 10.959,4.506 1.347,0.472 5.194,2.752 4.641,4.235 -1.036,2.77 -9.48,0.561 -14.338,1.962 -2.139,0.617 -3.589,9.241 -3.589,9.241 0.856,1.449 8.498,9.369 9.887,10.474 6.064,4.822 12.034,12.927 12.248,13.349 0.089,0.177 0.239,0.72 0.427,0.663 0.16,-0.046 0.012,-0.497 0,-0.663 -0.053,-0.785 -1.128,-15.104 -1.186,-24.004 -0.022,-3.33 1.249,-10.84 0.145,-15.431 -0.118,-0.489 -0.727,-2.259 -0.969,-3.397 -0.52,-2.442 1.322,-3.733 1.383,-3.88 z" style="fill:#037ef2;fill-opacity:1;fill-rule:nonzero;stroke:none"/></g><g id="g36" transform="translate(196.9663,131.6489)"><path id="path38" d="m 0,0 c -1.764,-3.533 -6.739,-10.992 -6.739,-13.346 0,-3.532 11.143,-2.402 15.846,-2.402 13.131,0 21.988,-0.425 22.95,1.51 0.876,1.762 -4.454,12.668 -6.218,17.574 l -5.924,15.465 c -1.372,3.729 -3.08,6.28 -4.256,6.28 -2.594,0 -2.679,-2.037 -4.489,-5.299 z m 23.489,56.056 c 1.176,1.962 3.971,10.32 6.715,10.32 2.308,0 10.191,-24.393 19.918,-50.515 10.682,-28.687 21.57,-58.782 21.57,-58.782 2.522,-7.843 5.601,-16.32 8.781,-18.751 6.208,-4.747 10.394,-1.541 10.355,-6.424 -0.022,-2.748 -4.208,-2.893 -6.168,-2.893 H 32.359 c -3.527,0 -3.349,1.442 -3.362,2.59 -0.057,4.704 12.443,1.106 14.574,14.816 0.391,2.52 -3.681,26.094 -10.433,27.061 -4.529,0.647 -10.704,0.803 -24.423,0.803 -10.386,0 -17.385,0.187 -20.129,-0.205 -6.467,-0.982 -14.544,-15.656 -15.51,-26.473 -1.297,-14.522 20.149,-8.242 20.157,-15.699 0.001,-0.802 -0.365,-2.893 -2.134,-2.893 h -42.947 c -3.331,0 -4.108,0.93 -4.108,2.5 0,4.71 9.977,4.318 14.876,13.541 z" style="fill:#fff;fill-opacity:1;fill-rule:nonzero;stroke:none"/></g><g id="g40" transform="translate(325.6348,84.4307)"><path id="path42" d="m 0,0 c -0.5,-18.876 17.834,-12.938 17.557,-20.329 -0.099,-2.611 -4.033,-3.254 -4.951,-3.254 h -52.033 c -4.045,0 -2.845,0.195 -3.199,2.826 -0.698,5.2 2.237,1.392 7.834,6.34 2.26,1.998 5.471,5.531 6.128,10.515 2.002,15.18 7.209,83.091 7.209,83.091 0.368,3.224 2.35,15.722 -0.575,19.864 -6.79,9.616 -16.396,1.941 -15.569,9.71 0.261,2.45 5.82,3.583 9.129,3.583 4.413,0 10.847,-0.198 26.106,-0.198 6.067,0 14.853,0.385 20.001,0.385 2.573,0 7.173,-0.283 7.173,-2.369 C 24.81,103.905 10.167,107.6 8.631,93.589 6.052,70.074 0.115,4.36 0,0" style="fill:#fff;fill-opacity:1;fill-rule:nonzero;stroke:none"/></g><g id="g44" transform="translate(426.855,138.3242)"><path id="path46" d="m 0,0 c 18.805,3.429 14.627,17.723 20.419,17.72 2.296,-0.002 2.723,-1.835 2.135,-5.369 -1.2,-7.208 -2.634,-18.112 -3.341,-36.764 -0.073,-1.938 -1.444,-4.114 -3.483,-3.96 -4.763,0.362 0.205,19.817 -20.751,19.38 0,0 -8.321,0.624 -14.814,-2.168 -3.552,-1.794 -3.066,-13.081 -3.757,-23.97 -0.516,-8.132 -1.467,-16.506 -1.526,-18.237 -0.423,-12.438 1.76,-13.98 13.622,-13.801 41.955,0.634 46.355,26.079 50.57,25.772 0,0 3.762,0.977 2.551,-5.355 -3.533,-18.46 -12.949,-28.667 -24.443,-30.752 h -83.513 c -2.678,0 -4.573,0.467 -4.573,1.625 0,9.242 14.144,1.341 16.625,20.831 l 7.416,73.152 c 0.53,10.337 0.087,19.003 0.087,22.09 0,14.277 -16.412,8.151 -16.584,14.675 -0.087,3.277 4.568,3.817 5.143,3.817 12.246,0 24.3,-0.211 36.547,-0.211 43.244,0 53.86,0.045 58.07,0.045 2.296,0 4.848,-0.296 4.813,-2.225 C 41.084,49.084 39.375,41.636 39.33,37.161 39.253,29.649 39.799,26.152 36.403,25.408 30.98,24.218 34.465,36.784 29.274,42.1 c -5.008,6.241 -21.959,6.473 -30.239,6.444 -5.072,-0.017 -10.394,1.308 -13.896,-2.049 -1.936,-1.86 -2.24,-9.627 -3.133,-19.514 -0.577,-6.385 -1.141,-14.772 -1.967,-21.094 -0.684,-5.22 0.121,-6.505 5.441,-6.505 z" style="fill:#fff;fill-opacity:1;fill-rule:nonzero;stroke:none"/></g><g id="g48" transform="translate(642.4727,138.3242)"><path id="path50" d="m 0,0 c 18.806,3.429 14.628,17.723 20.419,17.72 2.297,-0.002 2.724,-1.835 2.136,-5.369 -1.201,-7.208 -2.634,-18.112 -3.341,-36.764 -0.073,-1.938 -1.444,-4.114 -3.484,-3.96 -4.762,0.362 0.206,19.817 -20.751,19.38 0,0 -8.32,0.624 -14.813,-2.168 -3.553,-1.794 -3.067,-13.081 -3.758,-23.97 -0.515,-8.132 -1.466,-16.506 -1.525,-18.237 -0.424,-12.438 1.759,-13.98 13.621,-13.801 41.956,0.634 46.355,26.079 50.57,25.772 0,0 3.763,0.977 2.551,-5.355 -3.532,-18.46 -12.949,-28.667 -24.443,-30.752 H -66.33 c -2.679,0 -4.574,0.467 -4.574,1.625 0,9.242 14.144,1.341 16.625,20.831 l 7.416,73.152 c 0.53,10.337 0.087,19.003 0.087,22.09 0,14.277 -16.412,8.151 -16.584,14.675 -0.087,3.277 4.569,3.817 5.143,3.817 12.246,0 24.3,-0.211 36.547,-0.211 43.244,0 53.86,0.045 58.07,0.045 2.296,0 4.848,-0.296 4.814,-2.225 C 41.085,49.084 39.376,41.636 39.33,37.161 39.254,29.649 39.799,26.152 36.403,25.408 30.98,24.218 34.466,36.784 29.274,42.1 c -5.007,6.241 -21.959,6.473 -30.239,6.444 -5.071,-0.017 -10.394,1.308 -13.895,-2.049 -1.937,-1.86 -2.241,-9.627 -3.134,-19.514 -0.577,-6.385 -1.141,-14.772 -1.967,-21.094 -0.683,-5.22 0.121,-6.505 5.442,-6.505 z" style="fill:#fff;fill-opacity:1;fill-rule:nonzero;stroke:none"/></g><g id="g52" transform="translate(571.3081,159.3862)"><path id="path54" d="m 0,0 c 0,-1.792 -1.991,-3.706 -3.978,-3.78 -4.428,-0.165 -2.732,8.44 -10.457,19.151 -5.59,7.751 -17.002,15.096 -26.68,15.149 -12.126,0.065 -24.175,-4.233 -25.344,-18.129 -1.176,-13.984 7.158,-19.011 38.555,-29.485 12.972,-4.328 26.745,-15.446 27.157,-30.499 1.008,-36.778 -28.815,-55.012 -50.621,-52.585 -6.39,0.711 -15.257,2.867 -22.653,4.634 -7.395,1.766 -13.318,3.151 -13.814,5.341 0,0 -3.751,24.233 -4.745,30.098 -0.697,4.122 1.23,5.184 3.416,5.152 3.787,-0.054 5.037,-11.216 12.526,-21.349 5.948,-8.047 16.37,-16.04 28.601,-16.04 12.723,0 27.01,6.767 28.413,22.794 0.894,10.212 -4.853,15.836 -12.517,19.598 -11.788,5.788 -26.196,6.957 -42.424,19.875 -11.177,9.189 -10.959,19.416 -11.165,30.96 -0.356,19.862 22.364,38.636 42.84,38.636 13.915,0 26.856,-7.997 32.82,-7.997 1.59,0 5.994,3.964 7.584,3.964 3.38,0 2.689,-3.877 2.689,-6.664 C 0.203,28.824 0,6.171 0,0" style="fill:#fff;fill-opacity:1;fill-rule:nonzero;stroke:none"/></g><g id="g56" transform="translate(821.3701,160.5073)"><path id="path58" d="M 0,0 C 0.132,-5.231 0.894,-7.949 -2.51,-8.191 -6.256,-8.458 -9.624,12 -27.872,23.318 c -6.083,3.773 -13.844,5.752 -23.773,6.641 -9.679,0.866 -46.254,-4.587 -47.836,-61.993 -0.756,-27.439 13.62,-54.387 41.583,-54.735 30.059,-0.374 46.647,24.912 51.551,24.912 1.705,0 2.451,0.166 2.451,-1.771 0,-8.334 -31.185,-37.468 -62.257,-37.468 -34.217,0 -66.995,22.447 -63.499,63.513 1.17,13.738 5.354,32.639 15.91,46.787 14.119,18.924 37.695,28.012 57.459,28.012 27.177,0 39.415,-9.96 44.267,-10.668 4.912,-0.717 6.545,11.25 10.869,7.466 C 0.081,32.938 -0.124,4.911 0,0" style="fill:#fff;fill-opacity:1;fill-rule:nonzero;stroke:none"/></g><g id="g60" transform="translate(832.0605,60.9541)"><path id="path62" d="m 0,0 c -0.185,-0.682 -0.445,-1.319 -0.781,-1.913 -0.336,-0.594 -0.74,-1.132 -1.21,-1.614 -0.472,-0.482 -0.995,-0.895 -1.573,-1.24 -0.578,-0.344 -1.201,-0.611 -1.869,-0.797 -0.668,-0.187 -1.362,-0.281 -2.083,-0.281 -0.72,0 -1.413,0.094 -2.076,0.281 -0.664,0.186 -1.28,0.453 -1.849,0.797 -0.571,0.345 -1.09,0.758 -1.562,1.24 -0.471,0.482 -0.872,1.02 -1.204,1.614 -0.332,0.594 -0.588,1.231 -0.768,1.913 -0.18,0.681 -0.27,1.392 -0.27,2.131 0,0.739 0.09,1.454 0.27,2.143 0.18,0.69 0.436,1.331 0.768,1.926 0.332,0.594 0.733,1.136 1.204,1.626 0.472,0.49 0.991,0.907 1.562,1.252 0.569,0.345 1.185,0.613 1.849,0.805 0.663,0.19 1.356,0.286 2.076,0.286 1.082,0 2.098,-0.21 3.048,-0.629 0.95,-0.42 1.777,-0.993 2.477,-1.72 0.7,-0.727 1.254,-1.579 1.659,-2.554 C 0.073,4.289 0.276,3.244 0.276,2.131 0.276,1.392 0.184,0.681 0,0 M 1.148,4.555 C 0.936,5.332 0.635,6.059 0.245,6.735 -0.144,7.413 -0.613,8.027 -1.162,8.58 c -0.549,0.553 -1.155,1.028 -1.818,1.427 -0.665,0.399 -1.379,0.706 -2.145,0.923 -0.767,0.216 -1.562,0.323 -2.391,0.323 -0.827,0 -1.622,-0.107 -2.383,-0.323 -0.762,-0.217 -1.475,-0.524 -2.139,-0.923 -0.663,-0.399 -1.268,-0.874 -1.813,-1.427 -0.545,-0.553 -1.013,-1.167 -1.407,-1.845 -0.392,-0.676 -0.696,-1.403 -0.909,-2.18 -0.213,-0.777 -0.319,-1.585 -0.319,-2.424 0,-0.839 0.106,-1.645 0.319,-2.418 0.213,-0.773 0.517,-1.495 0.909,-2.168 0.394,-0.673 0.862,-1.286 1.407,-1.838 0.545,-0.553 1.15,-1.028 1.813,-1.428 0.664,-0.398 1.377,-0.706 2.139,-0.922 0.761,-0.215 1.556,-0.324 2.383,-0.324 0.829,0 1.624,0.109 2.391,0.324 0.766,0.216 1.48,0.524 2.145,0.922 0.663,0.4 1.269,0.875 1.818,1.428 0.549,0.552 1.018,1.165 1.407,1.838 0.39,0.673 0.691,1.397 0.903,2.175 0.213,0.776 0.32,1.58 0.32,2.411 0,0.839 -0.107,1.647 -0.32,2.424" style="fill:#fff;fill-opacity:1;fill-rule:nonzero;stroke:none"/></g><g id="g64" transform="translate(827.6914,60.0693)"><path id="path66" d="m 0,0 c -0.205,-0.1 -0.396,-0.208 -0.571,-0.324 -0.177,-0.116 -0.373,-0.223 -0.59,-0.318 -0.218,-0.095 -0.47,-0.176 -0.756,-0.243 -0.287,-0.066 -0.644,-0.099 -1.069,-0.099 -0.508,0 -0.978,0.088 -1.408,0.267 -0.429,0.179 -0.8,0.439 -1.112,0.779 -0.311,0.34 -0.555,0.762 -0.731,1.265 -0.176,0.503 -0.264,1.073 -0.264,1.714 0,0.623 0.086,1.184 0.258,1.682 0.172,0.499 0.422,0.923 0.75,1.271 0.327,0.349 0.721,0.617 1.18,0.804 0.459,0.187 0.978,0.28 1.56,0.28 0.475,0 0.87,-0.048 1.186,-0.142 0.315,-0.096 0.576,-0.201 0.781,-0.313 0.204,-0.111 0.37,-0.214 0.497,-0.305 0.127,-0.091 0.248,-0.137 0.362,-0.137 0.091,0 0.168,0.025 0.235,0.075 0.065,0.05 0.118,0.099 0.159,0.149 L 1.032,7.216 C 0.565,7.681 0.022,8.053 -0.596,8.331 -1.215,8.609 -1.971,8.748 -2.863,8.748 -3.667,8.748 -4.41,8.609 -5.094,8.331 -5.778,8.053 -6.37,7.662 -6.87,7.159 -7.37,6.656 -7.759,6.055 -8.037,5.353 -8.315,4.65 -8.455,3.88 -8.455,3.041 c 0,-0.831 0.129,-1.596 0.387,-2.293 0.258,-0.698 0.623,-1.301 1.093,-1.808 0.472,-0.506 1.038,-0.901 1.697,-1.183 0.659,-0.283 1.39,-0.424 2.193,-0.424 0.95,0 1.764,0.151 2.439,0.455 0.676,0.303 1.249,0.729 1.715,1.277 L 0.332,-0.138 C 0.233,-0.037 0.123,0.008 0,0" style="fill:#fff;fill-opacity:1;fill-rule:nonzero;stroke:none"/></g></g></g></g></svg>