<svg xmlns="http://www.w3.org/2000/svg" xmlns:svg="http://www.w3.org/2000/svg" id="svg2" width="1686.667" height="345.333" version="1.1" viewBox="0 0 1686.667 345.333" xml:space="preserve"><metadata id="metadata8"/><defs id="defs6"><clipPath id="clipPath18" clipPathUnits="userSpaceOnUse"><path id="path16" d="M 0,259 H 1265 V 0 H 0 Z"/></clipPath></defs><g id="g10" transform="matrix(1.3333333,0,0,-1.3333333,0,345.33333)"><g id="g12"><g id="g14" clip-path="url(#clipPath18)"><g id="g20" transform="translate(1119.7803,139.418)"><path id="path22" d="m 0,0 c -0.619,1.061 -2.418,2.917 -2.936,3.625 -1.942,2.657 -5.391,8.156 -8.435,12.23 -1.942,2.599 -4.713,4.974 -4.658,6.079 0.063,1.256 4.429,4.165 4.447,7.963 0.017,3.754 -2.702,7.642 -4.499,11.289 -1.448,2.939 -2.598,6.944 -2.657,8.519 -0.05,1.335 -0.015,3.58 2.436,3.115 3.707,-0.702 5.436,4.311 6.469,8.883 0.519,2.294 0.209,8.642 -3.329,10.884 -2.719,1.724 -7.605,2.646 -12.237,-1.768 -2.835,-2.701 -2.904,-8.262 -3.861,-12.818 -0.808,-3.847 -4.53,-13.524 -7.059,-21.942 -1.317,-4.385 -5.988,-15.943 -6.665,-17.653 -1.849,-4.669 -2.984,-14.672 -5.037,-21.32 -0.142,-0.457 -1.75,-2.241 -2.03,-2.462 -1.714,-1.361 -3.018,-5.55 0.146,-6.387 6.246,-1.651 5.652,5.917 5.809,6.387 1.551,4.61 4.103,9.663 5.704,15.154 0.226,0.775 1.241,4.581 1.649,5.277 0.199,0.339 2.041,4.195 2.772,5.207 0,0 0.735,-8.011 -1.666,-13.414 -0.314,-0.707 -2.342,-5.869 -2.657,-8.89 -0.865,-8.296 1.519,-13.642 4.659,-21.094 2.287,-5.426 5.328,-14.496 6.356,-17.356 0,0 -0.952,-0.583 -4.462,-2.726 -7.351,-4.488 -15.765,-18.595 -22.362,-23.458 -0.823,-0.606 -2.656,-1.083 -3.616,-2.386 -1.958,-2.659 1.552,-5.036 2.065,-5.83 0.904,-1.397 5.809,-8.588 6.698,-9.51 2.712,-2.812 3.521,2.173 2.256,4.423 -2.094,3.722 -2.334,8.541 -0.87,9.941 1.555,1.486 7.041,4.702 10.052,7.17 0.933,0.764 6.589,4.395 6.589,4.395 0,0 -1.332,-5.957 -0.455,-13.528 0.488,-4.213 0.669,-9.927 0.69,-10.868 0.037,-1.806 -0.443,-3.981 -1.372,-6.1 -1.243,-2.828 0.381,-5.026 2.149,-5.026 h 18.667 c 1.146,1.306 0.101,2.39 -5.372,3.85 -2.087,0.558 -5.762,2.069 -6.322,6.15 -0.437,3.177 0.43,10.937 1.43,15.317 0.677,2.962 3.68,18.885 3.68,18.885 0,0 4.119,2.061 5.338,3.993 1.17,1.857 1.594,4.603 1.3,9.547 -0.23,3.871 -0.336,14.841 -3.287,27.122 -4.612,19.191 -4.255,21.567 -4.255,21.567 0,0 2.224,-2.747 3.577,-3.82 3.495,-2.772 7.913,-6.699 9.27,-8.505 0.743,-0.987 0.476,-2.135 0.453,-2.9 -0.071,-2.267 1.716,-4.9 3.57,-4.035 3.14,1.466 2.8,5.23 1.868,6.824" style="fill:#000;fill-opacity:1;fill-rule:nonzero;stroke:none"/></g><g id="g24" transform="translate(1221.7422,57.6211)"><path id="path26" d="m 0,0 c -1.473,-0.095 -10.994,-0.677 -12.266,0.716 -5.065,5.548 -10.286,25.384 -13.2,31.514 -1.619,3.407 -9.763,31.341 -15.521,43.463 l 0.096,7.61 c 0,0 2.416,-0.973 2.959,-1.32 2.023,-1.29 8.878,-5.445 11.751,-8.76 0.924,-1.066 2.369,-3.489 2.664,-3.976 1.263,-2.08 4.81,-2.009 7.246,-0.469 1.183,0.748 2.114,4.551 -1.003,6.685 -0.918,0.629 -4.066,1.802 -5.85,3.281 -1.215,1.007 -11.508,10.252 -12.814,11.669 -0.852,0.926 -4.612,4.453 -4.612,4.453 -0.201,2.528 -1.441,17.564 -3.067,24.055 -0.851,3.397 -1.696,5.585 -1.662,7.256 0.027,1.282 -0.286,7.263 2.608,6.736 4.681,-0.853 7.325,8.691 6.733,14.366 -0.504,4.848 -3.457,9.1 -10.221,9.1 -2.595,0 -7.507,-2.564 -8.462,-6.879 -1.203,-5.438 -0.033,-7.451 0,-10.218 0.01,-0.776 0.093,-2.331 0,-3.101 -0.109,-0.911 -0.769,-5.474 -1.847,-6.721 -1.487,-1.721 -5.366,-3.983 -8.86,-9.735 -2.725,-4.487 -5.19,-15.022 -7.032,-21.193 -2.871,-9.616 -4.371,-24.403 -6.593,-28.071 -1.585,-2.618 -2.395,-5.405 -2.159,-8.114 0.472,-5.467 6.512,-4.021 7.722,-1.666 1.272,2.475 1.141,6.007 1.302,7.739 0.424,4.58 7.978,25.192 7.978,25.192 0,0 -0.495,-13.71 -0.682,-15.979 0,0 -1.482,-4.825 -2.607,-11.61 -0.51,-3.073 -0.558,-5.799 -0.993,-10.804 -0.61,-7.022 -1.86,-15.716 -3.261,-22.021 -6.068,-6.367 -9.424,-18.018 -15.352,-25.732 -1.021,-1.329 -6.258,-4.992 -2.629,-9.322 1.951,-2.329 5.891,-5.599 6.964,-6.549 0.56,-0.495 3.652,-3.498 5.841,-3.793 1.504,-0.202 4.275,-0.176 4.534,1.427 0.138,0.854 -3.004,2.324 -3.351,2.754 -1.749,2.171 -2.983,5.719 -3.161,7.678 -0.084,0.924 0.307,1.624 0.618,2.254 1.116,2.268 13.382,19.132 16.896,25.261 3.652,6.371 7.987,21.168 10.543,27.452 2.03,-6.252 12.484,-24.453 17.241,-33.325 2.138,-6.678 5.629,-12.695 11.891,-24.055 1.102,-2.001 1.334,-6.638 2.966,-7.46 1.049,-0.528 2.528,-0.25 5.304,1.136 8.026,4.006 18.106,4.572 18.106,6.505 C 4.758,-0.865 1.397,0.091 0,0" style="fill:#000;fill-opacity:1;fill-rule:nonzero;stroke:none"/></g><g id="g28" transform="translate(958.6357,110.6943)"><path id="path30" d="M 0,0 C 0.027,0.058 0.043,0.091 0.043,0.091 0.007,0.097 -0.006,0.064 0,0" style="fill:#000;fill-opacity:1;fill-rule:nonzero;stroke:none"/></g><g id="g32" transform="translate(942.7451,123.5781)"><path id="path34" d="m 0,0 c -2.272,-6.524 -5.198,-28.187 -5.198,-28.187 1.672,10.801 -0.568,25.671 -0.453,28.895 0.224,6.356 1.999,26.887 3.611,29.739 C -1.942,30.62 5.391,17.977 5.448,17.256 5.64,13.048 2.579,7.406 0,0 m -21.095,-49.846 -3.268,8.363 c 0.21,0.997 4.02,4.153 4.211,4.095 z m -6.658,33.456 c -1.132,-3.896 -2.743,-8.464 -3.712,-8.454 0,0 -2.731,5.572 -5.549,13.274 -1.534,4.194 -4.136,9.729 -4.06,13.449 0.125,6.144 -0.872,14.198 -0.166,14.636 0.526,0.326 4.345,-1.835 4.752,-2.491 0,0 0.9,-10.49 0.77,-11.052 0,0 -1.439,-1.761 -1.517,-3.841 -0.094,-2.505 1.589,-6.059 5.096,-5.974 4.093,0.099 4.758,3.971 4.822,3.742 0,0 0.823,-8.96 -0.436,-13.289 m -22.89,-33.065 c 0,0 -6.01,13.838 -6.087,16.667 -0.025,0.918 4.169,8.262 6.162,8.01 0.883,-0.113 8.872,-12.413 8.793,-14.089 -0.079,-1.655 -8.868,-10.588 -8.868,-10.588 m -27.804,-21.29 c -1.36,1.03 -2.469,5.916 -2.469,5.916 l 3.208,5.768 3.188,-11.114 c 0,0 -3.02,-1.258 -3.927,-0.57 m -6.286,18.035 c 0,0 -3.728,14.704 -3.676,15.2 l 1.784,2.229 5.543,-12.299 z m -14.593,-12.903 c -0.217,0.468 2.977,16.907 2.977,16.907 0,0 4.732,-11.959 4.945,-13.018 0,0 -1.175,-2.841 -1.727,-4.347 -0.687,-1.875 2.952,-5.871 2.952,-5.871 0,0 -6.771,1.181 -9.147,6.329 M 94.853,-78.155 c 0.106,0.256 0.748,0.741 0.279,1.547 -1.684,2.896 -14.527,3.821 -15.403,7.783 -0.167,0.76 1.937,14.499 2.311,17.096 0.53,3.69 2.471,18.926 3.687,25.269 2.893,15.097 0.953,31.881 1.471,32.142 l 4.877,-6.918 9.953,6.806 c 0.393,-0.016 3.83,-1.56 6.858,1.945 0.756,0.876 0.636,3.111 0.708,3.4 l 11.787,9.992 -16.97,23.217 c 0,0 -14.929,-13.75 -16.151,-13.491 -0.2,0.043 -0.281,5.261 -0.213,9.488 0.063,3.853 -0.044,9.993 -1.299,13.014 -1.077,2.593 -2.23,5.865 -1.849,7.085 0.069,0.221 0.789,0.531 0.731,1.548 -0.077,1.352 -0.437,2.311 -0.461,2.59 -0.228,2.567 0.036,3.307 2.335,2.941 4.881,-0.777 7.073,10.644 7.188,11.129 0.116,0.488 0.112,5.559 -1.998,7.787 -1.001,1.057 -3.192,4.466 -9.797,3.337 -4.528,-0.774 -7.844,-4.61 -8.077,-9.482 -0.189,-3.958 2.012,-6.056 1.816,-11.043 -0.009,-0.222 -0.043,-1.093 -0.188,-1.262 -1.613,-1.89 -7.381,-6.032 -9.756,-9.33 C 64.528,55.429 62.103,48.653 61.326,46.902 60.6,45.266 58.901,42.106 58.21,40.455 57.504,38.769 55.996,34.573 55.17,31.199 52.725,21.215 54.118,8.434 53.979,7.136 53.943,6.815 53.521,6.273 53.308,6.03 53.074,5.764 52.454,5.393 52.198,5.146 51.771,4.735 50.502,3.76 50.652,2.474 c 0.272,-2.323 1.78,-5.607 5.103,-4.671 1.699,0.478 2.678,2.605 2.891,2.89 0.179,0.242 1.19,1.904 1.34,2.225 0.242,0.515 0.395,1.663 0.452,2.228 0.049,0.496 -0.049,3.482 0,3.977 0.083,0.846 2.336,14.847 3.637,17.425 1.554,3.078 3.479,9.006 3.479,9.006 0,0 0.059,-9.32 -0.012,-10.206 -0.11,-1.401 -0.775,-4.15 -0.887,-5.551 -0.035,-0.444 0.072,-1.341 0,-1.78 -0.169,-1.039 -3.413,-6.428 -3.143,-12.356 0.22,-4.859 2.48,-7.689 2.031,-9.876 -0.379,-1.843 -4.123,-17.023 -4.442,-17.752 -0.193,-0.439 -0.818,-1.184 -1.115,-1.562 -1.312,-1.67 -3.86,-5.141 -5.181,-6.805 -2.351,-2.958 -9.203,-13.944 -9.203,-13.944 0,0 -3.283,11.451 -4.683,15.427 -0.834,2.369 -10.48,26.855 -11.18,29.104 -0.377,1.211 -4.082,17.466 -2.905,18.22 0.718,0.46 10.563,-5.97 12.475,-8.01 0.378,-0.403 2.778,-3.171 3.1,-3.755 0.196,-0.355 1,-1.74 3.115,-1.562 0.389,0.033 2.741,0.278 3.117,0.424 0.92,0.358 2.057,2.598 1.106,4.893 -0.096,0.231 -0.791,1.403 -1.55,1.994 -0.914,0.713 -10.401,6.447 -11.118,6.888 -1.548,0.951 -9.537,10.132 -9.564,10.444 -0.466,5.359 2.091,7.331 1.44,12.05 -0.704,5.1 -4.113,8.989 -5.199,10.598 -4.8,7.111 -3.721,14.214 -2.487,14.218 4.024,0.013 6.489,1.45 7.966,7.538 0.598,2.465 1.606,6.533 -0.377,10.465 -1.284,2.545 -6.396,4.612 -10.632,4.18 C 13.505,88.356 11.7,84.538 11.072,83.169 7.209,74.745 9.701,69.757 6.476,61.322 5.191,57.962 -0.362,49.994 1.889,45.959 L 1.613,44.628 c 0,0 -3.68,8.334 -6.358,17.143 -0.188,0.615 0.615,1.407 0.645,2.224 0.067,1.762 -0.349,2.517 -0.272,2.664 0.092,0.173 0.16,1.798 1.527,1.548 5.003,-0.913 6.536,3.805 7.208,6.664 1.175,4.998 0.853,10.259 -0.873,11.788 -3.891,3.448 -8.722,3.545 -10.25,3.112 -5.204,-1.472 -7.267,-5.509 -7.103,-9.337 0.292,-6.777 2.852,-8.985 0.883,-11.78 -0.647,-0.917 -12.49,-7.389 -14.727,-12.648 -6.359,-14.95 -7.99,-29.387 -8.074,-29.959 -0.105,-0.714 -4.607,2.603 -5.171,3.111 -0.804,0.723 -0.17,9.261 -1.629,17.744 -0.672,3.908 -3.815,12.389 -4.211,13.86 -0.312,1.158 -0.078,5.465 1.099,5.231 4.05,-0.803 7.701,7.757 7.795,11.55 0.115,4.624 -0.703,8.405 -2.458,9.774 -3.224,2.516 -7.636,2.939 -9.12,2.454 -4.361,-1.424 -6.973,-4.036 -7.332,-6.681 -0.653,-4.819 0.778,-7.978 0.889,-9.765 0.048,-0.774 0.139,-2.338 0,-3.101 -0.171,-0.937 -0.963,-6.43 -4.227,-10.004 -5.6,-6.131 -7.562,-15.764 -7.562,-15.764 0,0 -2.313,5.861 -5.523,11.587 -0.834,1.488 -1.482,2.946 -1.924,4.372 -0.866,2.787 -1.43,5.572 -0.383,5.48 6.43,-0.569 9.688,12.173 9.389,14.605 -0.535,4.345 -4.114,8.866 -8.983,8.833 -7.515,-0.051 -8.606,-6.983 -8.779,-9.082 -0.218,-2.623 -0.169,-8.545 -0.264,-10.027 -0.083,-1.289 -0.981,-4.439 -1.261,-5.701 -0.339,-1.538 -3.313,-3.536 -5.187,-10.309 0,0 -2.672,3.234 -2.889,4.016 -0.505,1.815 0.655,5.599 1.368,8.072 0,0 1.483,-0.237 2.279,-0.232 1.92,0.011 4.613,3.278 4.982,10.447 0.241,4.677 -1.085,7.798 -3.794,10.508 -1.29,1.289 -4.677,2.746 -10.634,2.746 H -904.432 V -78.155 h 805.121 24.305 17.198 c 2.469,0 0.839,3.015 -0.879,3.562 -2.827,0.901 -5.37,2.761 -6.154,3.486 -0.954,0.881 -5.018,21.225 -5.018,21.225 l 4.812,7.611 6.53,-15.057 c 0,0 -2.074,-1.964 -2.456,-4.034 -0.599,-3.258 4.648,-10.802 5.231,-11.875 1.247,-2.294 2.808,-4.918 4.483,-4.918 h 2.925 c 3.509,0 15.641,3.755 16.439,4.215 2.78,1.602 3.978,2.504 3.22,4.027 -0.569,1.145 -3.897,1.028 -4.173,1.094 -1.502,0.359 -7.739,0.162 -10.017,1.782 -1.488,1.058 -2.138,2.65 -3.145,5.629 0,0 10.006,12.369 12.105,12.037 1.573,-0.249 10.369,-19.547 10.468,-19.899 0.259,-0.913 -1.242,-4.968 -0.45,-7.972 0.171,-0.647 1.708,-0.913 1.877,-0.913 H 0.431 c 0.364,0.085 3.292,0.869 1.493,2.673 -0.533,0.535 -4.573,1.012 -5.038,1.202 -0.365,0.149 -2.954,0.629 -2.903,1.02 0,0 5.462,1.713 6.601,2.432 0.576,0.364 1.921,0.955 2.236,1.558 0.18,0.346 0.936,1.345 0.281,2.583 -0.515,0.972 -3.57,0.645 -4.068,0.601 -0.955,-0.085 -8.409,-0.798 -8.453,-0.301 -0.637,7.114 12.262,26.977 13.289,28.421 3.702,5.207 12.065,25.173 12.065,25.173 0,0 6.462,-12.578 13.587,-22.302 0.677,-0.925 8.221,-15.948 8.169,-17.266 -0.009,-0.254 -2.961,-4.162 -4.497,-4.771 -1.37,-0.543 -4.325,-1.9 -4.793,-3.042 -0.393,-0.958 -0.432,-2.25 0,-3.089 1.099,-2.133 6.729,-9.966 7.23,-10.707 0.2,-0.295 1.776,-2.784 3.184,-3.557 2.388,-1.313 5.872,-0.628 5.872,-0.628 0.097,0.052 0.347,1.486 -0.405,2.151 -0.717,0.635 -1.697,2.054 -2.53,3.329 -0.546,0.835 -1.771,4.412 -1.572,6.69 0.128,1.477 1.704,4.166 2.055,4.204 0,0 3.132,-5.904 3.878,-9.201 0.349,-1.539 0.429,-2.281 1.276,-3.578 0.941,-1.44 3.177,-1.164 4.152,-0.656 1.846,0.963 9.311,3.923 10.957,4.5 1.348,0.473 5.195,2.748 4.641,4.229 -1.035,2.766 -9.479,0.56 -14.336,1.96 -2.14,0.616 -3.589,9.227 -3.589,9.227 0.856,1.447 8.496,9.357 9.885,10.459 6.064,4.816 12.034,12.907 12.248,13.33 0.09,0.176 0.239,0.718 0.427,0.662 0.16,-0.047 0.012,-0.497 0,-0.662 -0.053,-0.784 -1.127,-15.082 -1.186,-23.968 -0.022,-3.326 1.249,-10.827 0.145,-15.411 -0.118,-0.488 -0.727,-2.255 -0.969,-3.391 -0.52,-2.439 1.322,-3.728 1.383,-3.874 z" style="fill:#000;fill-opacity:1;fill-rule:nonzero;stroke:none"/></g><g id="g36" transform="translate(196.9019,131.7681)"><path id="path38" d="m 0,0 c -1.764,-3.527 -6.738,-10.975 -6.738,-13.327 0,-3.527 11.141,-2.398 15.844,-2.398 13.13,0 21.986,-0.425 22.949,1.508 0.876,1.759 -4.454,12.649 -6.218,17.548 l -5.923,15.443 c -1.372,3.723 -3.081,6.271 -4.256,6.271 -2.594,0 -2.679,-2.034 -4.489,-5.291 z m 23.487,55.975 c 1.176,1.959 3.971,10.305 6.715,10.305 2.307,0 10.19,-24.358 19.916,-50.442 10.682,-28.645 21.569,-58.698 21.569,-58.698 2.522,-7.831 5.601,-16.296 8.78,-18.723 6.208,-4.74 10.394,-1.54 10.355,-6.415 -0.022,-2.744 -4.208,-2.888 -6.167,-2.888 H 32.356 c -3.527,0 -3.348,1.439 -3.361,2.586 -0.057,4.697 12.442,1.104 14.573,14.794 0.391,2.517 -3.681,26.057 -10.432,27.022 -4.529,0.647 -10.704,0.802 -24.421,0.802 -10.386,0 -17.385,0.187 -20.129,-0.205 -6.466,-0.98 -14.543,-15.633 -15.508,-26.434 -1.297,-14.502 20.148,-8.23 20.156,-15.677 0.001,-0.8 -0.365,-2.888 -2.135,-2.888 h -42.944 c -3.331,0 -4.107,0.928 -4.107,2.496 0,4.703 9.975,4.311 14.874,13.521 z" style="fill:#fff;fill-opacity:1;fill-rule:nonzero;stroke:none"/></g><g id="g40" transform="translate(325.5615,84.6182)"><path id="path42" d="m 0,0 c -0.5,-18.849 17.833,-12.919 17.556,-20.3 -0.099,-2.607 -4.032,-3.249 -4.951,-3.249 h -52.029 c -4.044,0 -2.846,0.195 -3.199,2.821 -0.698,5.194 2.236,1.391 7.833,6.332 2.261,1.995 5.471,5.523 6.128,10.5 2.002,15.159 7.208,82.971 7.208,82.971 0.368,3.219 2.35,15.698 -0.575,19.835 -6.789,9.602 -16.394,1.938 -15.567,9.695 0.261,2.447 5.819,3.579 9.128,3.579 4.412,0 10.846,-0.198 26.105,-0.198 6.066,0 14.851,0.384 19.999,0.384 2.573,0 7.173,-0.283 7.173,-2.366 0,-6.249 -14.642,-2.56 -16.179,-16.55 C 6.052,69.973 0.115,4.354 0,0" style="fill:#fff;fill-opacity:1;fill-rule:nonzero;stroke:none"/></g><g id="g44" transform="translate(426.7749,138.4336)"><path id="path46" d="m 0,0 c 18.804,3.424 14.626,17.698 20.418,17.694 2.296,-0.002 2.723,-1.832 2.135,-5.361 -1.2,-7.198 -2.634,-18.085 -3.341,-36.711 -0.073,-1.934 -1.444,-4.108 -3.483,-3.954 -4.762,0.361 0.205,19.789 -20.75,19.352 0,0 -8.32,0.624 -14.812,-2.165 -3.552,-1.792 -3.066,-13.062 -3.757,-23.935 -0.516,-8.12 -1.467,-16.483 -1.526,-18.211 -0.423,-12.419 1.76,-13.959 13.621,-13.78 41.953,0.632 46.352,26.041 50.567,25.733 0,0 3.762,0.977 2.551,-5.347 C 38.09,-65.118 28.674,-75.31 17.181,-77.392 h -83.507 c -2.678,0 -4.573,0.466 -4.573,1.622 0,9.23 14.143,1.34 16.624,20.802 l 7.415,73.045 c 0.53,10.323 0.087,18.976 0.087,22.059 0,14.256 -16.41,8.139 -16.583,14.654 -0.086,3.273 4.569,3.811 5.143,3.811 12.245,0 24.299,-0.21 36.544,-0.21 43.242,0 53.857,0.045 58.067,0.045 2.296,0 4.848,-0.296 4.813,-2.223 -0.129,-7.199 -1.837,-14.637 -1.883,-19.105 -0.077,-7.502 0.468,-10.994 -2.927,-11.737 -5.422,-1.187 -1.938,11.359 -7.129,16.668 -5.007,6.232 -21.957,6.464 -30.237,6.435 -5.071,-0.017 -10.393,1.306 -13.894,-2.047 -1.937,-1.856 -2.24,-9.612 -3.134,-19.485 -0.577,-6.376 -1.14,-14.751 -1.967,-21.063 -0.683,-5.213 0.122,-6.496 5.442,-6.496 z" style="fill:#fff;fill-opacity:1;fill-rule:nonzero;stroke:none"/></g><g id="g48" transform="translate(642.3789,138.4336)"><path id="path50" d="m 0,0 c 18.805,3.424 14.627,17.698 20.418,17.694 2.296,-0.002 2.723,-1.832 2.135,-5.361 -1.2,-7.198 -2.633,-18.085 -3.341,-36.711 -0.073,-1.934 -1.443,-4.108 -3.483,-3.954 -4.762,0.361 0.205,19.789 -20.75,19.352 0,0 -8.32,0.624 -14.812,-2.165 -3.552,-1.792 -3.066,-13.062 -3.757,-23.935 -0.516,-8.12 -1.467,-16.483 -1.526,-18.211 -0.423,-12.419 1.76,-13.959 13.621,-13.78 41.953,0.632 46.352,26.041 50.567,25.733 0,0 3.762,0.977 2.55,-5.347 C 38.09,-65.118 28.674,-75.31 17.181,-77.392 h -83.507 c -2.679,0 -4.573,0.466 -4.573,1.622 0,9.23 14.143,1.34 16.624,20.802 l 7.415,73.045 c 0.53,10.323 0.087,18.976 0.087,22.059 0,14.256 -16.411,8.139 -16.583,14.654 -0.086,3.273 4.568,3.811 5.143,3.811 12.245,0 24.299,-0.21 36.544,-0.21 43.241,0 53.857,0.045 58.066,0.045 2.297,0 4.849,-0.296 4.814,-2.223 C 41.082,49.014 39.373,41.576 39.328,37.108 39.251,29.606 39.796,26.114 36.4,25.371 30.979,24.184 34.463,36.73 29.272,42.039 24.265,48.271 7.314,48.503 -0.965,48.474 -6.036,48.457 -11.358,49.78 -14.859,46.427 -16.796,44.571 -17.1,36.815 -17.993,26.942 -18.57,20.566 -19.133,12.191 -19.96,5.879 c -0.683,-5.213 0.122,-6.496 5.442,-6.496 z" style="fill:#fff;fill-opacity:1;fill-rule:nonzero;stroke:none"/></g><g id="g52" transform="translate(571.2192,159.4653)"><path id="path54" d="m 0,0 c 0,-1.789 -1.991,-3.701 -3.978,-3.774 -4.427,-0.165 -2.731,8.427 -10.457,19.123 -5.589,7.739 -17.001,15.074 -26.678,15.127 -12.125,0.065 -24.173,-4.227 -25.342,-18.103 -1.176,-13.964 7.158,-18.983 38.552,-29.443 12.972,-4.322 26.744,-15.423 27.156,-30.455 1.008,-36.725 -28.813,-54.932 -50.618,-52.509 -6.39,0.71 -15.257,2.864 -22.651,4.627 -7.395,1.764 -13.317,3.148 -13.814,5.334 0,0 -3.751,24.198 -4.744,30.055 -0.698,4.116 1.229,5.176 3.416,5.144 3.786,-0.054 5.035,-11.2 12.525,-21.318 5.947,-8.036 16.368,-16.016 28.599,-16.016 12.722,0 27.008,6.757 28.411,22.76 0.894,10.198 -4.853,15.813 -12.516,19.571 -11.788,5.779 -26.194,6.946 -42.422,19.846 -11.175,9.175 -10.958,19.387 -11.165,30.915 -0.355,19.832 22.364,38.579 42.838,38.579 13.915,0 26.854,-7.984 32.818,-7.984 1.591,0 5.994,3.958 7.584,3.958 3.38,0 2.688,-3.872 2.688,-6.655 C 0.202,28.782 0,6.162 0,0" style="fill:#fff;fill-opacity:1;fill-rule:nonzero;stroke:none"/></g><g id="g56" transform="translate(821.2646,160.585)"><path id="path58" d="m 0,0 c 0.132,-5.224 0.894,-7.938 -2.51,-8.18 -3.745,-0.266 -7.114,20.161 -25.36,31.464 -6.082,3.768 -13.844,5.744 -23.771,6.631 -9.679,0.865 -46.253,-4.58 -47.834,-61.902 -0.755,-27.4 13.619,-54.309 41.58,-54.657 30.058,-0.373 46.645,24.875 51.548,24.875 1.706,0 2.451,0.167 2.451,-1.768 0,-8.321 -31.182,-37.413 -62.253,-37.413 -34.215,0 -66.991,22.415 -63.495,63.422 1.17,13.717 5.354,32.591 15.91,46.718 14.117,18.897 37.692,27.972 57.455,27.972 27.175,0 39.412,-9.946 44.264,-10.653 4.912,-0.716 6.544,11.234 10.868,7.456 C 0.081,32.891 -0.124,4.903 0,0" style="fill:#fff;fill-opacity:1;fill-rule:nonzero;stroke:none"/></g><g id="g60" transform="translate(831.9541,61.1758)"><path id="path62" d="m 0,0 c -0.185,-0.681 -0.444,-1.317 -0.78,-1.91 -0.336,-0.594 -0.74,-1.131 -1.211,-1.612 -0.471,-0.481 -0.995,-0.894 -1.572,-1.239 -0.579,-0.343 -1.201,-0.609 -1.869,-0.796 -0.668,-0.186 -1.362,-0.28 -2.083,-0.28 -0.72,0 -1.413,0.094 -2.077,0.28 -0.663,0.187 -1.279,0.453 -1.848,0.796 -0.57,0.345 -1.09,0.758 -1.561,1.239 -0.472,0.481 -0.873,1.018 -1.205,1.612 -0.331,0.593 -0.588,1.229 -0.768,1.91 -0.18,0.68 -0.27,1.389 -0.27,2.128 0,0.738 0.09,1.451 0.27,2.14 0.18,0.688 0.437,1.33 0.768,1.922 0.332,0.593 0.733,1.135 1.205,1.624 0.471,0.49 0.991,0.907 1.561,1.251 0.569,0.344 1.185,0.612 1.848,0.803 0.664,0.191 1.357,0.286 2.077,0.286 1.081,0 2.098,-0.21 3.048,-0.629 0.95,-0.419 1.776,-0.991 2.476,-1.716 C -1.29,7.082 -0.737,6.232 -0.332,5.257 0.073,4.282 0.276,3.239 0.276,2.128 0.276,1.389 0.185,0.68 0,0 M 1.148,4.548 C 0.936,5.323 0.635,6.05 0.245,6.726 -0.144,7.401 -0.612,8.016 -1.161,8.567 -1.71,9.119 -2.316,9.594 -2.98,9.992 c -0.664,0.399 -1.378,0.705 -2.144,0.921 -0.767,0.216 -1.563,0.323 -2.391,0.323 -0.827,0 -1.622,-0.107 -2.383,-0.323 -0.762,-0.216 -1.475,-0.522 -2.139,-0.921 -0.663,-0.398 -1.268,-0.873 -1.813,-1.425 -0.545,-0.551 -1.013,-1.166 -1.406,-1.841 -0.393,-0.676 -0.697,-1.403 -0.91,-2.178 -0.213,-0.776 -0.319,-1.582 -0.319,-2.42 0,-0.839 0.106,-1.643 0.319,-2.414 0.213,-0.773 0.517,-1.494 0.91,-2.166 0.393,-0.672 0.861,-1.283 1.406,-1.835 0.545,-0.552 1.15,-1.027 1.813,-1.425 0.664,-0.398 1.377,-0.706 2.139,-0.921 0.761,-0.216 1.556,-0.324 2.383,-0.324 0.828,0 1.624,0.108 2.391,0.324 0.766,0.215 1.48,0.523 2.144,0.921 0.664,0.398 1.27,0.873 1.819,1.425 0.549,0.552 1.017,1.163 1.406,1.835 0.39,0.672 0.691,1.395 0.903,2.172 0.213,0.775 0.32,1.578 0.32,2.408 0,0.838 -0.107,1.644 -0.32,2.42" style="fill:#fff;fill-opacity:1;fill-rule:nonzero;stroke:none"/></g><g id="g64" transform="translate(827.585,60.292)"><path id="path66" d="M 0,0 C -0.204,-0.1 -0.395,-0.208 -0.571,-0.323 -0.747,-0.44 -0.944,-0.546 -1.161,-0.641 -1.378,-0.736 -1.63,-0.817 -1.917,-0.884 -2.203,-0.95 -2.56,-0.983 -2.985,-0.983 c -0.509,0 -0.978,0.088 -1.408,0.267 -0.43,0.179 -0.8,0.438 -1.112,0.778 -0.311,0.34 -0.555,0.761 -0.731,1.263 -0.176,0.502 -0.264,1.072 -0.264,1.711 0,0.622 0.086,1.183 0.258,1.68 0.172,0.498 0.422,0.921 0.75,1.269 0.327,0.349 0.721,0.617 1.18,0.803 0.458,0.187 0.978,0.28 1.56,0.28 0.475,0 0.87,-0.047 1.186,-0.143 0.315,-0.096 0.575,-0.199 0.78,-0.311 0.205,-0.112 0.371,-0.214 0.498,-0.305 0.127,-0.091 0.247,-0.137 0.362,-0.137 0.09,0 0.168,0.025 0.234,0.075 0.065,0.05 0.118,0.1 0.16,0.149 L 1.032,7.205 C 0.565,7.67 0.022,8.041 -0.596,8.318 -1.214,8.597 -1.97,8.735 -2.863,8.735 -3.666,8.735 -4.409,8.597 -5.093,8.318 -5.777,8.041 -6.369,7.65 -6.869,7.149 -7.369,6.646 -7.758,6.046 -8.036,5.345 -8.314,4.644 -8.454,3.874 -8.454,3.036 c 0,-0.83 0.129,-1.593 0.387,-2.29 0.258,-0.696 0.623,-1.298 1.093,-1.804 0.472,-0.506 1.037,-0.9 1.697,-1.182 0.659,-0.282 1.39,-0.423 2.193,-0.423 0.95,0 1.764,0.151 2.439,0.454 0.676,0.303 1.248,0.728 1.714,1.275 L 0.332,-0.137 C 0.233,-0.037 0.123,0.008 0,0" style="fill:#fff;fill-opacity:1;fill-rule:nonzero;stroke:none"/></g></g></g></g></svg>