<svg xmlns="http://www.w3.org/2000/svg" width="1601.333" height="1601.333" preserveAspectRatio="xMidYMid meet" version="1.0" viewBox="0 0 1201 1201"><metadata>Created by potrace 1.16, written by Peter Selinger 2001-2019</metadata><g fill="#000" stroke="none"><path d="M10 6010 l0 -6000 6000 0 6000 0 0 6000 0 6000 -6000 0 -6000 0 0 -6000z m5983 4535 c204 -43 347 -190 392 -402 40 -186 1 -467 -90 -658 -66 -138 -141 -197 -252 -199 -50 -1 -66 -5 -86 -24 -41 -38 -60 -127 -60 -282 0 -131 2 -140 47 -300 76 -267 126 -589 176 -1115 11 -121 23 -243 26 -271 l5 -52 207 -199 c331 -318 689 -643 772 -700 25 -17 99 -58 166 -91 83 -41 131 -73 157 -101 66 -74 84 -198 39 -275 -54 -92 -236 -135 -354 -84 -46 20 -56 31 -125 137 -84 130 -151 204 -268 295 -181 142 -442 313 -545 357 l-65 27 -3 -204 -2 -204 63 -147 c126 -291 293 -758 533 -1493 166 -509 206 -623 267 -770 24 -58 95 -251 157 -430 231 -666 344 -939 457 -1105 88 -130 84 -129 493 -130 l325 -1 57 -26 c102 -47 134 -103 86 -147 -28 -26 -96 -49 -354 -115 -257 -67 -425 -122 -553 -182 -143 -68 -216 -94 -266 -94 -92 0 -118 29 -160 180 -53 191 -67 223 -218 496 -279 506 -369 687 -460 931 -34 89 -115 248 -305 595 -391 714 -568 1058 -638 1242 l-18 50 -20 -44 c-10 -25 -78 -216 -151 -425 -220 -631 -303 -839 -410 -1021 -73 -124 -282 -436 -595 -889 -306 -442 -323 -471 -328 -546 -5 -69 29 -192 85 -304 50 -102 74 -128 167 -189 46 -30 87 -64 91 -75 18 -57 -59 -100 -180 -101 -68 0 -89 4 -140 29 -80 38 -116 66 -308 234 -311 272 -380 359 -379 473 1 81 43 159 145 270 141 152 195 240 427 694 206 402 281 532 386 666 42 54 80 112 85 129 18 66 70 373 103 605 39 273 59 457 81 760 24 319 62 553 142 860 19 74 37 164 39 200 7 94 33 744 30 748 -9 9 -278 -787 -352 -1043 -44 -150 -57 -214 -65 -305 -20 -247 -39 -337 -82 -401 -31 -47 -114 -90 -188 -96 -157 -15 -240 92 -226 291 8 104 36 194 104 329 68 137 101 264 189 725 98 517 112 574 263 1112 229 812 286 918 712 1315 82 77 86 83 107 155 54 185 65 371 36 580 -25 175 -5 365 49 484 31 66 119 162 191 205 130 78 242 97 389 66z" transform="translate(0.000000,1201.000000) scale(0.100000,-0.100000)"/></g></svg>